<svg width="73" height="63" viewBox="0 0 73 63" fill="none" xmlns="http://www.w3.org/2000/svg">
<path fill-rule="evenodd" clip-rule="evenodd" d="M36.0809 0.373047C20.7088 0.373047 8.24731 12.8982 8.24731 28.3487C8.24731 33.5935 9.68329 38.5014 12.1816 42.6963H20.5032C17.6897 38.6255 16.0407 33.6807 16.0407 28.3487C16.0407 14.4433 27.2561 3.17061 41.0909 3.17061C45.5074 3.17061 49.6567 4.31918 53.2597 6.3358C48.5287 2.60073 42.5635 0.373047 36.0809 0.373047ZM59.2164 42.6963H52.1836C55.8719 39.0434 58.1584 33.9643 58.1584 28.3487C58.1584 17.2244 49.1863 8.20615 38.1182 8.20615C34.5851 8.20615 31.2656 9.12515 28.3832 10.7382C32.1681 7.75021 36.9401 5.96817 42.1262 5.96817C54.4239 5.96817 64.3935 15.9883 64.3935 28.3487C64.3935 33.8085 62.4483 38.8115 59.2164 42.6963Z" fill="#FF8F1C"/>
<path d="M33.1575 15.6326H39.4833V41.0651H33.1575V15.6326Z" fill="#013098"/>
<path d="M4.65675 58.0155V48.2441H2.22632V58.0155H4.65675Z" fill="#013098"/>
<path d="M10.8677 48.2444V52.594L6.00684 48.1086V58.0157H8.43726V53.6661L13.2981 58.1514V48.2444H10.8677Z" fill="#013098"/>
<path d="M21.3999 50.687V48.2441H14.6487V58.0155H17.0791V54.3512H20.5897V51.9084H17.0791V50.687H21.3999Z" fill="#013098"/>
<path d="M27.0708 48.1086C24.3123 48.1086 22.075 50.3574 22.075 53.13C22.075 55.9026 24.3123 58.1514 27.0708 58.1514C29.8294 58.1514 32.0667 55.9026 32.0667 53.13C32.0667 50.3574 29.8294 48.1086 27.0708 48.1086ZM27.0708 55.7086C25.6558 55.7086 24.5054 54.5523 24.5054 53.13C24.5054 51.7078 25.6558 50.5515 27.0708 50.5515C28.4859 50.5515 29.6363 51.7078 29.6363 53.13C29.6363 54.5523 28.4859 55.7086 27.0708 55.7086Z" fill="#013098"/>
<path d="M40.7083 58.0155V48.2441H38.2778V58.0155H40.7083Z" fill="#013098"/>
<path d="M42.0583 48.2441V50.687H44.4888V58.0155H46.9192V50.687H49.3496V48.2441H42.0583Z" fill="#013098"/>
<path d="M51.9149 58.0156C52.5861 58.0156 53.1301 57.4687 53.1301 56.7942C53.1301 56.1196 52.5861 55.5728 51.9149 55.5728C51.2438 55.5728 50.6997 56.1196 50.6997 56.7942C50.6997 57.4687 51.2438 58.0156 51.9149 58.0156Z" fill="#FF8F1C"/>
<path d="M59.3416 48.2441V54.3512C59.3416 55.0244 58.7961 55.5726 58.1264 55.5726C57.4566 55.5726 56.9111 55.0244 56.9111 54.3512V48.2441H54.4807V54.3512C54.4807 56.372 56.1158 58.0155 58.1264 58.0155C60.1369 58.0155 61.772 56.372 61.772 54.3512V48.2441H59.3416Z" fill="#FF8F1C"/>
<path d="M70.4134 48.2441H63.1221V50.687H66.5733L63.1221 58.0155H70.4134V55.5726H66.9621L70.4134 48.2441Z" fill="#FF8F1C"/>
<path fill-rule="evenodd" clip-rule="evenodd" d="M0.281982 43.6572H72.3577V44.6182H0.281982V43.6572Z" fill="#FF8F1C"/>
<path fill-rule="evenodd" clip-rule="evenodd" d="M72.3577 62.4668H0.281982V61.5059H72.3577V62.4668Z" fill="#FF8F1C"/>
</svg>
