<?xml version="1.0" standalone="no"?>
<!DOCTYPE svg PUBLIC "-//W3C//DTD SVG 20010904//EN"
 "http://www.w3.org/TR/2001/REC-SVG-20010904/DTD/svg10.dtd">
<svg version="1.0" xmlns="http://www.w3.org/2000/svg"
 width="877.000000pt" height="877.000000pt" viewBox="0 0 877.000000 877.000000"
 preserveAspectRatio="xMidYMid meet">
<metadata>
Created by potrace 1.14, written by Peter Selinger 2001-2017
</metadata>
<g transform="translate(0.000000,877.000000) scale(0.100000,-0.100000)"
fill="#000000" stroke="none">
<path d="M4195 6429 c-131 -13 -175 -20 -288 -49 -231 -58 -451 -163 -647
-309 -92 -67 -318 -294 -381 -382 -205 -283 -326 -609 -354 -954 -7 -78 -7
-270 -1 -315 3 -19 7 -56 11 -81 5 -41 8 -58 19 -124 2 -11 12 -49 21 -85 9
-36 19 -72 20 -80 12 -48 71 -193 120 -294 l58 -116 48 0 c27 -1 132 -1 234
-1 102 0 205 0 230 1 l46 0 -37 57 c-103 161 -184 360 -220 538 -11 57 -14 72
-19 100 -22 132 -22 396 0 499 2 11 6 35 9 51 11 74 51 219 85 305 156 393
442 705 818 893 162 81 376 143 568 163 117 12 333 7 441 -12 126 -21 327 -86
446 -143 43 -21 78 -36 78 -34 0 11 -244 160 -322 197 -147 68 -315 125 -443
151 -148 30 -377 40 -540 24z"/>
<path d="M4629 6065 c-2 -1 -29 -6 -60 -9 -187 -22 -418 -105 -579 -209 -30
-20 -60 -41 -67 -47 -7 -5 -16 -10 -21 -10 -5 0 -15 -7 -22 -15 -6 -8 14 -2
47 14 32 15 90 40 128 54 61 23 105 34 240 63 63 13 340 12 420 -2 213 -37
416 -122 580 -243 271 -201 456 -495 521 -832 25 -129 23 -367 -5 -498 -42
-200 -128 -398 -226 -522 -11 -14 -29 -38 -40 -53 -11 -15 -39 -47 -63 -72
l-42 -44 75 0 c120 -1 322 -1 363 0 39 1 40 2 131 135 74 109 171 327 196 441
2 11 11 51 21 89 25 107 28 400 4 530 -30 171 -62 270 -131 408 -40 80 -119
209 -145 234 -8 8 -14 18 -14 22 0 5 -48 58 -107 118 -177 180 -347 291 -563
365 -47 16 -92 31 -100 33 -8 1 -35 8 -60 15 -25 7 -63 14 -85 17 -21 2 -43 7
-48 10 -9 6 -343 14 -348 8z"/>
<path d="M4175 4590 c0 -462 2 -840 5 -841 7 -1 359 -1 390 0 l25 1 0 838 0
837 -210 3 -210 2 0 -840z"/>
<path d="M1989 3570 c0 -3 -2 -17 -3 -32 l-2 -28 2401 0 2401 0 -1 33 -2 32
-2396 0 c-1318 0 -2397 -2 -2398 -5z"/>
<path d="M3663 3262 c-51 -18 -104 -53 -145 -95 -22 -24 -66 -111 -74 -149
-10 -44 -4 -134 10 -175 85 -241 388 -304 562 -116 79 83 106 226 64 335 -27
73 -96 150 -165 183 -72 36 -179 43 -252 17z m184 -165 c82 -43 114 -146 71
-227 -65 -121 -244 -118 -302 5 -68 143 90 295 231 222z"/>
<path d="M2115 2948 l0 -323 80 0 80 0 1 323 1 322 -81 0 -81 0 0 -322z"/>
<path d="M2367 2962 c1 -169 2 -314 2 -323 1 -12 15 -15 79 -15 l77 1 5 142 5
142 66 -62 c147 -139 249 -229 250 -221 0 5 0 151 1 324 l1 315 -81 3 -81 3
-3 -141 -3 -140 -39 35 c-45 40 -123 112 -208 192 -31 29 -60 53 -65 53 -4 0
-7 -138 -6 -308z"/>
<path d="M2944 2948 l1 -323 73 0 c40 -1 76 1 80 5 4 3 8 57 7 120 l0 115 110
2 c61 1 113 2 118 2 4 1 7 36 7 80 l0 78 -108 0 c-60 0 -113 3 -119 6 -6 4
-10 21 -9 39 l1 33 142 3 141 3 4 57 c1 31 2 67 0 80 l-3 22 -224 0 -223 0 2
-322z"/>
<path d="M4517 3263 c-2 -5 -3 -150 -3 -323 l1 -315 81 -1 81 -1 0 324 0 323
-78 0 c-43 0 -80 -3 -82 -7z"/>
<path d="M4769 3263 c0 -5 -1 -39 -2 -78 l-2 -70 83 -3 82 -3 0 -242 0 -243
78 0 77 1 3 243 2 242 79 0 c91 0 88 -4 83 96 l-4 64 -239 0 c-131 0 -239 -3
-240 -7z"/>
<path d="M5595 3048 c1 -240 6 -275 54 -336 14 -18 50 -45 80 -59 138 -68 303
6 340 154 7 24 11 133 11 253 l-1 210 -80 0 c-56 0 -79 -4 -80 -12 0 -7 -2
-103 -3 -213 -1 -110 -6 -208 -11 -219 -12 -27 -63 -46 -96 -34 -48 17 -54 45
-54 272 l0 206 -81 0 -81 0 2 -222z"/>
<path d="M6170 3190 l0 -79 114 -3 113 -3 -48 -100 c-60 -125 -179 -377 -179
-379 0 -1 109 -1 242 -1 l242 0 1 70 c0 39 -1 75 -2 80 -2 7 -46 10 -113 10
-61 0 -110 3 -110 6 0 4 32 73 71 155 86 179 149 315 149 320 0 2 -108 4 -240
4 l-240 0 0 -80z"/>
<path d="M5405 2782 c-72 -15 -83 -112 -16 -147 37 -19 35 -19 69 -1 80 42 36
167 -53 148z"/>
<path d="M1997 2388 c-6 -4 -12 -18 -13 -32 l-1 -26 176 0 c97 0 1114 0 2261
0 1147 0 2148 0 2225 0 l140 0 0 30 c1 17 -2 30 -5 31 -34 5 -4775 2 -4783 -3z"/>
</g>
</svg>
